<?xml version="1.0" standalone="no"?>
<!DOCTYPE svg PUBLIC "-//W3C//DTD SVG 20010904//EN"
 "http://www.w3.org/TR/2001/REC-SVG-20010904/DTD/svg10.dtd">
<svg version="1.0" xmlns="http://www.w3.org/2000/svg"
 width="300.000000pt" height="300.000000pt" viewBox="0 0 300.000000 300.000000"
 preserveAspectRatio="xMidYMid meet">
<metadata>
Created by potrace 1.10, written by Peter Selinger 2001-2011
</metadata>
<g transform="translate(0.000000,300.000000) scale(0.100000,-0.100000)"
fill="#000000" stroke="none">
<path d="M610 1811 c-170 -52 -237 -204 -147 -338 44 -66 139 -115 230 -118
48 -2 80 -10 131 -35 82 -39 99 -32 71 30 l-18 41 41 42 c126 129 81 301 -96
367 -54 21 -162 26 -212 11z m225 -58 c75 -39 115 -98 115 -169 0 -42 -21 -86
-66 -136 -18 -21 -36 -49 -40 -62 -6 -25 -7 -25 -42 -10 -20 8 -68 16 -107 18
-78 3 -133 26 -176 73 -97 104 -70 225 63 289 46 22 63 25 133 21 56 -2 92
-10 120 -24z"/>
<path d="M569 1662 c-41 -36 -42 -77 -5 -109 38 -32 72 -29 107 8 37 40 36 54
-5 95 -41 41 -56 42 -97 6z m83 -37 c10 -22 9 -29 -9 -46 -26 -26 -60 -18 -69
17 -13 52 56 77 78 29z"/>
<path d="M783 1682 c-25 -4 -73 -56 -73 -79 0 -24 56 -73 85 -73 31 0 75 43
75 74 0 45 -45 85 -87 78z m41 -48 c20 -20 20 -27 -3 -55 -16 -21 -22 -22 -45
-11 -17 8 -26 19 -26 35 0 44 43 62 74 31z"/>
<path d="M1720 1685 c-70 -32 -102 -81 -102 -157 1 -59 25 -104 73 -136 29
-20 43 -23 98 -20 60 4 66 7 102 46 22 23 39 46 39 52 0 21 -69 11 -94 -15
-72 -72 -190 31 -142 123 30 58 98 71 142 27 17 -17 36 -25 59 -25 40 0 41 2
18 42 -37 61 -128 91 -193 63z"/>
<path d="M386 1669 c-59 -46 -83 -149 -52 -223 7 -18 28 -48 45 -68 33 -38 37
-57 20 -89 -6 -12 -8 -27 -5 -36 5 -12 16 -9 63 16 47 26 68 31 127 32 39 0
87 7 106 14 l35 13 -42 1 c-95 2 -205 62 -254 138 -37 59 -45 115 -25 173 8
24 14 46 12 47 -2 2 -15 -6 -30 -18z m53 -269 c60 -58 69 -80 33 -80 -10 0
-24 16 -34 38 -9 20 -29 52 -44 70 -41 50 -22 38 45 -28z"/>
<path d="M1145 1530 l0 -160 98 0 97 0 0 36 0 35 -62 -2 -63 -3 0 127 0 127
-35 0 -35 0 0 -160z"/>
<path d="M1950 1530 l0 -160 35 0 35 0 0 80 c0 71 2 81 21 91 16 8 28 8 45 0
22 -10 24 -16 24 -91 l0 -80 35 0 35 0 0 80 c0 91 -12 126 -51 146 -36 18 -60
18 -85 -1 -10 -8 -21 -15 -24 -15 -3 0 -3 25 -2 55 l4 55 -36 0 -36 0 0 -160z"/>
<path d="M2532 1638 c2 -29 0 -33 -20 -31 -18 2 -22 -2 -22 -27 0 -25 4 -30
23 -30 22 0 23 -3 19 -62 -3 -53 -1 -67 18 -90 17 -22 30 -28 61 -28 37 0 39
2 39 31 0 18 -4 28 -10 24 -23 -14 -40 17 -40 71 0 51 1 54 25 54 21 0 25 5
25 31 0 28 -2 31 -25 25 -23 -6 -25 -4 -25 29 0 34 -2 35 -36 35 -34 0 -35 -1
-32 -32z"/>
<path d="M1413 1590 c-41 -25 -53 -48 -53 -105 0 -40 5 -52 34 -81 28 -28 42
-34 75 -34 60 0 111 30 111 66 0 9 -59 3 -65 -6 -16 -26 -95 0 -95 31 0 5 38
9 85 9 84 0 85 0 85 25 0 89 -99 143 -177 95z m100 -52 l22 -23 -33 -3 c-18
-2 -45 -2 -60 0 l-27 3 23 23 c12 12 29 22 37 22 8 0 25 -10 38 -22z"/>
<path d="M2270 1593 c-51 -35 -69 -89 -50 -148 22 -67 104 -97 158 -59 20 14
22 14 22 0 0 -11 10 -16 30 -16 l30 0 0 120 0 120 -30 0 c-20 0 -30 -5 -30
-16 0 -14 -2 -14 -22 0 -29 21 -77 20 -108 -1z m120 -75 c13 -25 13 -31 0 -55
-12 -21 -25 -29 -50 -31 -39 -4 -60 16 -60 57 0 62 79 83 110 29z"/>
</g>
</svg>
